# xmcd
# Track frame offsets:
# 150
# 18951
# 34353
# 48756
# 63367
# 78130
# 95049
# 107303
# 122412
# 138814
#
# Disc length: 2011 seconds
# Revision: 0
# Processed by: cddbd v1.4PL0 Copyright (c) Steve Scherf et al.
# Submitted via: VisiTrax 2.9.5.181 - For more info visit www.synapsa.com
#
DISCID=6f07d90a
DTITLE=Tanya Tucker - Love Songs
DYEAR=1900
DGENRE=
TTITLE0=Two Sparrows In A Hurricane
TTITLE1=Hangin' In
TTITLE2=I'll Take Today
TTITLE3=I'm In Love And He's In Dallas
TTITLE4=As Long As There's A Heartbeat
TTITLE5=Love Me Like You Used To
TTITLE6=Strong Enough To Bend
TTITLE7=Your Love Amazes Me
TTITLE8=Right About Now
TTITLE9=Would You Lay With Me (In A Field Of Stone)
EXTD=
EXTT0=
EXTT1=
EXTT2=
EXTT3=
EXTT4=
EXTT5=
EXTT6=
EXTT7=
EXTT8=
EXTT9=
PLAYORDER=
